<svg width="331.7" height="80" viewBox="0 0 331.7 80" xmlns="http://www.w3.org/2000/svg">
    <g id="svgGroup" fill-rule="evenodd" fill="#0d6efd">
        <path
            d="M 122.108 68.914 A 29.467 29.467 0 0 0 123 68.9 Q 124.3 68.9 127.75 68.55 Q 129.906 68.332 132.453 67.82 A 74.515 74.515 0 0 0 135.65 67.1 Q 140.1 66 144.2 64 A 25.005 25.005 0 0 0 147.261 62.199 A 19.238 19.238 0 0 0 151.5 58.25 A 14.442 14.442 0 0 0 153.092 55.751 A 10.185 10.185 0 0 0 154.2 51.2 A 8.84 8.84 0 0 0 153.664 48.175 A 10.941 10.941 0 0 0 152.3 45.6 A 10.977 10.977 0 0 0 151.098 44.177 Q 149.259 42.33 146.2 40.8 Q 143.1 39.2 139.9 38 A 32.172 32.172 0 0 1 138.535 37.454 Q 137.446 36.988 136.523 36.487 A 16.507 16.507 0 0 1 134.7 35.35 A 5.512 5.512 0 0 1 133.862 34.612 Q 132.882 33.539 132.882 32.177 A 3.969 3.969 0 0 1 132.9 31.8 A 3.734 3.734 0 0 1 133.071 31.058 Q 133.567 29.571 135.35 27.55 A 34.973 34.973 0 0 1 136.482 26.33 Q 137.489 25.293 138.709 24.187 A 69.773 69.773 0 0 1 141.25 22 Q 144.9 19 149.25 16.1 Q 153.6 13.2 157.9 10.9 A 11.529 11.529 0 0 1 158.067 10.802 Q 159.094 10.209 161.35 9.15 A 50.457 50.457 0 0 1 162.92 8.446 A 59.505 59.505 0 0 1 166.65 7 A 22.806 22.806 0 0 1 167.307 6.781 Q 168.468 6.413 169.533 6.218 A 12.639 12.639 0 0 1 171.8 6 A 6.612 6.612 0 0 1 172.367 6.024 Q 172.966 6.075 173.451 6.24 A 2.8 2.8 0 0 1 174.9 7.3 Q 171.9 9.4 169 11.9 A 47.202 47.202 0 0 0 168.819 12.057 A 43.135 43.135 0 0 0 163.8 17.2 A 35.579 35.579 0 0 0 163.43 17.663 Q 162.289 19.117 161 21.05 Q 159.5 23.3 158.5 25.8 Q 157.5 28.3 157.5 30.7 Q 157.5 32.4 158.25 34 Q 159 35.6 160.6 36.9 A 9.57 9.57 0 0 1 160.581 36.303 Q 160.581 33.384 162.35 30.3 A 32.99 32.99 0 0 1 164.116 27.554 A 40.478 40.478 0 0 1 167.35 23.6 Q 170.4 20.3 173.5 17.3 Q 175.244 15.613 176.719 14.083 A 90.905 90.905 0 0 0 178.85 11.8 Q 180.362 10.121 180.948 8.757 A 4.443 4.443 0 0 0 181.3 7.5 A 9.843 9.843 0 0 0 181.333 7.188 Q 181.679 3.335 178.65 1.7 A 13.714 13.714 0 0 0 174.703 0.324 A 19.053 19.053 0 0 0 171.1 0 A 25.672 25.672 0 0 0 169.629 0.044 Q 167.705 0.154 165.553 0.547 A 48.245 48.245 0 0 0 161.25 1.55 A 65.434 65.434 0 0 0 158.112 2.513 A 75.582 75.582 0 0 0 149.95 5.8 Q 144.2 8.5 139.25 12.05 A 47.716 47.716 0 0 0 135.509 15.017 A 37.362 37.362 0 0 0 131.05 19.65 A 24.412 24.412 0 0 0 130.852 19.901 Q 129.559 21.556 128.725 23.22 A 13.962 13.962 0 0 0 127.3 27.8 A 9.354 9.354 0 0 0 127.245 28.797 Q 127.245 30.991 128.35 32.75 A 11.581 11.581 0 0 0 129.39 34.158 A 13.052 13.052 0 0 0 132 36.45 Q 134.3 38 136.9 39.15 Q 139.5 40.3 141.75 41.15 Q 143.297 41.735 144.347 42.248 A 13.236 13.236 0 0 1 145.2 42.7 A 16.155 16.155 0 0 1 146.212 43.411 Q 146.809 43.868 147.27 44.325 A 6.96 6.96 0 0 1 148.1 45.3 A 5.754 5.754 0 0 1 148.456 45.884 A 4.472 4.472 0 0 1 149 48 A 5.434 5.434 0 0 1 148.417 50.416 A 7.772 7.772 0 0 1 147.45 51.9 Q 145.9 53.8 143.6 55.35 Q 141.3 56.9 138.9 58.05 A 38.705 38.705 0 0 1 137.786 58.563 Q 136.916 58.947 136.134 59.234 A 18.681 18.681 0 0 1 134.7 59.7 A 36.65 36.65 0 0 1 133.342 60.081 Q 130.346 60.86 126.887 61.24 A 64.155 64.155 0 0 1 119.9 61.6 Q 113.5 61.6 107.3 60.15 A 33.105 33.105 0 0 1 105.745 59.747 Q 100.636 58.288 97.5 55.5 Q 98.5 59.3 101.3 61.9 Q 104.1 64.5 107.9 66.1 Q 111.7 67.7 115.7 68.35 Q 119.167 68.914 122.108 68.914 Z M 62.9 8.7 L 63.8 8.7 Q 64.667 8.7 64.699 9.257 A 0.758 0.758 0 0 1 64.7 9.3 Q 64.7 9.841 63.805 11.033 A 15.317 15.317 0 0 1 63.6 11.3 A 288.217 288.217 0 0 0 59.205 17.227 Q 56.939 20.362 54.5 23.886 A 473.453 473.453 0 0 0 53.8 24.9 Q 48.5 32.6 43.2 40.9 A 551.022 551.022 0 0 0 35.644 53.069 A 485.439 485.439 0 0 0 33.3 57 A 49.427 49.427 0 0 1 42.816 58.756 A 45.294 45.294 0 0 1 44.1 59.15 A 26.202 26.202 0 0 1 48.442 60.976 A 19.42 19.42 0 0 1 52.45 63.8 Q 55.7 66.8 55.7 71.5 Q 55.7 73.449 55.283 73.991 A 0.473 0.473 0 0 1 54.9 74.2 Q 54.413 74.2 54.59 73.252 A 4.063 4.063 0 0 1 54.6 73.2 A 3.719 3.719 0 0 0 54.695 72.503 Q 54.763 70.703 52.908 69.292 A 8.694 8.694 0 0 0 52.1 68.75 A 17.673 17.673 0 0 0 49.466 67.482 Q 48.086 66.944 46.434 66.511 A 40.074 40.074 0 0 0 43.7 65.9 A 57.87 57.87 0 0 0 36.217 65.008 A 69.804 69.804 0 0 0 32.3 64.9 L 30.5 64.9 Q 29.6 64.9 28.7 65 Q 26.5 69 24.65 72.55 A 86.974 86.974 0 0 0 23.368 75.107 Q 22.694 76.512 22.158 77.778 A 46.883 46.883 0 0 0 21.7 78.9 Q 21.2 80 20.8 80 A 0.384 0.384 0 0 1 20.451 79.776 Q 20.3 79.504 20.3 78.9 Q 20.3 78.057 20.727 76.644 A 20.197 20.197 0 0 1 20.9 76.1 A 35.586 35.586 0 0 1 21.458 74.688 Q 22.064 73.238 22.95 71.4 A 120.581 120.581 0 0 1 24.237 68.816 Q 24.908 67.506 25.677 66.071 A 202.587 202.587 0 0 1 26.2 65.1 A 43.291 43.291 0 0 0 21.978 65.642 A 39.18 39.18 0 0 0 21.4 65.75 A 54.002 54.002 0 0 0 17.595 66.634 A 48.602 48.602 0 0 0 17 66.8 A 29.679 29.679 0 0 0 14.062 67.707 A 37.481 37.481 0 0 0 11.95 68.55 A 144.812 144.812 0 0 1 8.089 70.162 A 125.492 125.492 0 0 1 6.85 70.65 Q 5.103 71.328 3.687 71.522 A 8.003 8.003 0 0 1 2.6 71.6 A 5.362 5.362 0 0 1 1.924 71.561 Q 1.131 71.46 0.7 71.1 A 1.314 1.314 0 0 1 0.289 70.59 Q 0.064 70.126 0.014 69.362 A 7.076 7.076 0 0 1 0 68.9 A 4.918 4.918 0 0 1 0.162 67.698 Q 0.431 66.632 1.15 65.35 A 8.27 8.27 0 0 1 2.28 63.82 Q 3.444 62.55 5.35 61.3 A 17.465 17.465 0 0 1 7.772 59.996 Q 10.353 58.837 14.081 57.929 A 57.523 57.523 0 0 1 14.2 57.9 A 23.978 23.978 0 0 1 16.144 57.462 Q 17.104 57.285 18.194 57.149 A 46.691 46.691 0 0 1 19.55 57 A 65.424 65.424 0 0 1 23.268 56.758 A 82.676 82.676 0 0 1 26.4 56.7 L 28.65 56.7 Q 29.8 56.7 30.9 56.8 Q 34.5 50.6 38.65 43.95 Q 42.8 37.3 46.9 31 Q 51 24.7 54.45 19.65 A 331.586 331.586 0 0 1 56.1 17.257 Q 58.13 14.34 59.662 12.296 A 95.288 95.288 0 0 1 60.15 11.65 Q 62.068 9.135 62.714 8.764 A 0.398 0.398 0 0 1 62.9 8.7 Z M 84.672 71.182 A 8.125 8.125 0 0 0 86.9 74.4 A 0.37 0.37 0 0 0 86.933 74.415 Q 87.124 74.488 87.4 74.35 A 0.373 0.373 0 0 0 87.458 74.314 Q 87.638 74.179 87.466 73.896 A 1.221 1.221 0 0 0 87.4 73.8 A 4.964 4.964 0 0 1 86.688 72.602 Q 86.373 71.861 86.227 70.939 A 11.124 11.124 0 0 1 86.1 69.2 Q 86.1 66.888 86.764 64.126 A 35.947 35.947 0 0 1 87.8 60.65 Q 89.5 55.8 92.25 50.6 A 106.756 106.756 0 0 1 93.118 48.992 A 95.404 95.404 0 0 1 98.1 40.9 Q 100.7 37.1 103.65 33.3 Q 106.6 29.5 109.35 26.2 A 152.902 152.902 0 0 1 111.01 24.24 Q 112.772 22.197 114.25 20.65 Q 116.4 18.4 117.4 17.8 Q 116.2 16.7 114.6 16.2 Q 113 15.7 111.3 15.7 Q 109.6 15.7 107.95 16.3 Q 106.3 16.9 105.2 18.2 A 22.811 22.811 0 0 0 104.611 18.892 Q 103.607 20.117 102.322 21.969 A 96.727 96.727 0 0 0 101.15 23.7 A 104.978 104.978 0 0 0 100.823 24.197 Q 98.517 27.722 95.95 32.25 Q 93.2 37.1 90.7 42.4 A 4.063 4.063 0 0 0 89.859 39.901 A 5.775 5.775 0 0 0 88.75 38.8 A 4.954 4.954 0 0 0 88.409 38.561 Q 87.051 37.687 84.785 37.419 A 18.665 18.665 0 0 0 82.6 37.3 A 20.905 20.905 0 0 0 77.973 37.828 A 25.543 25.543 0 0 0 72.65 39.7 A 30.521 30.521 0 0 0 71.948 40.045 A 26.559 26.559 0 0 0 64.1 46 Q 62.1 48.2 60.45 50.1 A 42.335 42.335 0 0 1 59.574 51.08 Q 59.027 51.671 58.524 52.163 A 19.35 19.35 0 0 1 57.5 53.1 A 5.726 5.726 0 0 0 57.165 53.388 Q 56.766 53.762 56.606 54.088 A 0.939 0.939 0 0 0 56.5 54.5 Q 56.5 54.889 56.802 54.975 A 0.72 0.72 0 0 0 57 55 A 1.068 1.068 0 0 0 57.046 54.999 Q 57.27 54.99 57.494 54.886 A 1.709 1.709 0 0 0 57.8 54.7 Q 58.3 54.3 58.85 53.8 Q 59.4 53.3 60 52.8 Q 59.6 54 59.35 55.2 A 11.377 11.377 0 0 0 59.32 55.351 A 12.295 12.295 0 0 0 59.1 57.7 Q 59.1 60.161 59.73 61.98 A 7.239 7.239 0 0 0 61.7 65.05 A 8.921 8.921 0 0 0 64.428 66.756 A 9.666 9.666 0 0 0 68 67.4 A 13.394 13.394 0 0 0 72.867 66.496 A 15.755 15.755 0 0 0 77.1 64 A 41.536 41.536 0 0 0 77.133 63.972 Q 79.219 62.18 81.55 59.7 A 85.239 85.239 0 0 0 83.249 57.839 A 71.855 71.855 0 0 0 85.8 54.8 A 77.138 77.138 0 0 0 85.174 57.083 A 64.144 64.144 0 0 0 84.35 60.7 A 31.251 31.251 0 0 0 84.015 62.758 A 25.564 25.564 0 0 0 83.8 66 A 17.224 17.224 0 0 0 83.924 68.103 A 13.222 13.222 0 0 0 84.55 70.85 A 9.669 9.669 0 0 0 84.672 71.182 Z M 203.6 40.5 L 203.3 40.9 Q 200.5 44.6 197.3 48.15 Q 194.1 51.7 190.3 54.7 A 3.304 3.304 0 0 1 190.135 54.817 Q 189.873 54.989 189.72 55 A 0.287 0.287 0 0 1 189.7 55 A 0.576 0.576 0 0 1 189.542 54.98 Q 189.364 54.93 189.317 54.748 A 0.589 0.589 0 0 1 189.3 54.6 Q 189.3 53.917 190.175 53.088 A 6.834 6.834 0 0 1 190.5 52.8 A 64.191 64.191 0 0 0 195.094 48.535 A 73.478 73.478 0 0 0 196.6 46.95 Q 199.6 43.7 202 40.1 A 1.734 1.734 0 0 1 201.385 39.346 Q 201.118 38.752 201.101 37.825 A 6.95 6.95 0 0 1 201.1 37.7 Q 201.1 35 202.8 31.9 A 13.198 13.198 0 0 1 203.735 30.473 Q 204.285 29.748 204.879 29.213 A 6.919 6.919 0 0 1 205.45 28.75 A 8.007 8.007 0 0 1 206.238 28.243 Q 207.158 27.729 207.916 27.702 A 2.348 2.348 0 0 1 208 27.7 A 2.506 2.506 0 0 1 208.894 27.847 Q 209.987 28.263 210.089 29.858 A 5.348 5.348 0 0 1 210.1 30.2 A 5.584 5.584 0 0 1 209.958 31.395 Q 209.688 32.625 208.9 34.2 A 7.5 7.5 0 0 1 208.501 35.003 Q 207.953 35.971 206.95 37.25 A 15.002 15.002 0 0 1 205.959 38.398 Q 205.43 38.948 204.908 39.354 A 6.854 6.854 0 0 1 204.1 39.9 A 15.71 15.71 0 0 1 205.837 39.439 Q 207.419 39.107 209.45 38.95 Q 212.661 38.703 214.847 38.7 A 38.846 38.846 0 0 1 214.9 38.7 A 5.803 5.803 0 0 1 215.912 38.797 Q 216.397 38.883 216.944 39.047 A 14.299 14.299 0 0 1 218.1 39.45 Q 219.926 40.171 219.997 41.954 A 3.67 3.67 0 0 1 220 42.1 A 3.314 3.314 0 0 1 219.77 43.276 Q 219.595 43.739 219.286 44.225 A 7.726 7.726 0 0 1 218.8 44.9 A 7.363 7.363 0 0 1 218.652 45.089 Q 218.288 45.543 217.363 46.612 A 207.772 207.772 0 0 1 217.2 46.8 A 47.036 47.036 0 0 0 216.015 48.228 Q 215.42 48.971 214.781 49.822 A 83.405 83.405 0 0 0 214.35 50.4 A 62.442 62.442 0 0 0 211.582 54.469 A 57.476 57.476 0 0 0 211.5 54.6 Q 210.383 56.233 209.672 57.644 A 17.889 17.889 0 0 0 209.45 58.1 A 10.847 10.847 0 0 0 209.055 59.051 Q 208.706 60.028 208.7 60.775 A 3.255 3.255 0 0 0 208.7 60.8 Q 208.7 62.352 210.393 62.399 A 3.87 3.87 0 0 0 210.5 62.4 A 6.09 6.09 0 0 0 211.939 62.207 Q 213.298 61.875 215.058 60.967 A 27.43 27.43 0 0 0 216.1 60.4 A 53.587 53.587 0 0 0 219.502 58.273 Q 221.249 57.092 223.115 55.664 A 90.332 90.332 0 0 0 223.65 55.25 Q 227.7 52.1 231.1 48.7 A 2.371 2.371 0 0 1 231.294 48.525 Q 231.503 48.358 231.681 48.315 A 0.508 0.508 0 0 1 231.8 48.3 Q 232.2 48.3 232.2 48.8 A 1.42 1.42 0 0 1 231.93 49.628 A 2.025 2.025 0 0 1 231.7 49.9 Q 228.2 53.4 223.95 57.05 A 52.945 52.945 0 0 1 216.846 62.222 A 47.555 47.555 0 0 1 215.15 63.2 A 21.941 21.941 0 0 1 211.217 64.909 A 16.226 16.226 0 0 1 206.3 65.7 A 17.497 17.497 0 0 1 204.353 65.6 Q 201.631 65.294 200.5 64.05 A 6.087 6.087 0 0 1 199.475 62.54 A 4.987 4.987 0 0 1 199 60.4 A 7.757 7.757 0 0 1 199.469 57.811 Q 199.969 56.396 201 54.9 A 716.614 716.614 0 0 0 202.191 53.208 Q 202.814 52.319 203.502 51.334 A 1174.073 1174.073 0 0 0 203.7 51.05 Q 205.2 48.9 206.5 47 Q 207.697 45.251 208.216 44.434 A 22.014 22.014 0 0 0 208.3 44.3 A 30.161 30.161 0 0 0 208.58 43.894 Q 209.033 43.224 209.15 42.95 Q 209.3 42.6 209.3 42.2 A 1.048 1.048 0 0 0 209.135 41.649 Q 209.032 41.479 208.863 41.313 A 2.865 2.865 0 0 0 208.55 41.05 Q 207.8 40.5 206.1 40.5 A 8.404 8.404 0 0 0 205.746 40.507 Q 205.573 40.515 205.422 40.53 A 4.058 4.058 0 0 0 205.25 40.55 A 4.954 4.954 0 0 1 204.793 40.593 A 5.966 5.966 0 0 1 204.5 40.6 A 9.898 9.898 0 0 1 204.226 40.597 Q 203.73 40.583 203.618 40.514 A 0.099 0.099 0 0 1 203.6 40.5 Z M 303.1 40.5 L 302.8 40.9 Q 300 44.6 296.8 48.15 Q 293.6 51.7 289.8 54.7 A 3.304 3.304 0 0 1 289.635 54.817 Q 289.373 54.989 289.22 55 A 0.287 0.287 0 0 1 289.2 55 A 0.576 0.576 0 0 1 289.042 54.98 Q 288.864 54.93 288.817 54.748 A 0.589 0.589 0 0 1 288.8 54.6 Q 288.8 53.917 289.675 53.088 A 6.834 6.834 0 0 1 290 52.8 A 64.191 64.191 0 0 0 294.594 48.535 A 73.478 73.478 0 0 0 296.1 46.95 Q 299.1 43.7 301.5 40.1 A 1.734 1.734 0 0 1 300.885 39.346 Q 300.618 38.752 300.601 37.825 A 6.95 6.95 0 0 1 300.6 37.7 Q 300.6 35 302.3 31.9 A 13.198 13.198 0 0 1 303.235 30.473 Q 303.785 29.748 304.379 29.213 A 6.919 6.919 0 0 1 304.95 28.75 A 8.007 8.007 0 0 1 305.738 28.243 Q 306.658 27.729 307.416 27.702 A 2.348 2.348 0 0 1 307.5 27.7 A 2.506 2.506 0 0 1 308.394 27.847 Q 309.487 28.263 309.589 29.858 A 5.348 5.348 0 0 1 309.6 30.2 A 5.584 5.584 0 0 1 309.458 31.395 Q 309.188 32.625 308.4 34.2 A 7.5 7.5 0 0 1 308.001 35.003 Q 307.453 35.971 306.45 37.25 A 15.002 15.002 0 0 1 305.459 38.398 Q 304.93 38.948 304.408 39.354 A 6.854 6.854 0 0 1 303.6 39.9 A 15.71 15.71 0 0 1 305.337 39.439 Q 306.919 39.107 308.95 38.95 Q 312.161 38.703 314.347 38.7 A 38.846 38.846 0 0 1 314.4 38.7 A 5.803 5.803 0 0 1 315.412 38.797 Q 315.897 38.883 316.444 39.047 A 14.299 14.299 0 0 1 317.6 39.45 Q 319.426 40.171 319.497 41.954 A 3.67 3.67 0 0 1 319.5 42.1 A 3.314 3.314 0 0 1 319.27 43.276 Q 319.095 43.739 318.786 44.225 A 7.726 7.726 0 0 1 318.3 44.9 A 7.363 7.363 0 0 1 318.152 45.089 Q 317.788 45.543 316.863 46.612 A 207.772 207.772 0 0 1 316.7 46.8 A 47.036 47.036 0 0 0 315.515 48.228 Q 314.92 48.971 314.281 49.822 A 83.405 83.405 0 0 0 313.85 50.4 A 62.442 62.442 0 0 0 311.082 54.469 A 57.476 57.476 0 0 0 311 54.6 Q 309.883 56.233 309.172 57.644 A 17.889 17.889 0 0 0 308.95 58.1 A 10.847 10.847 0 0 0 308.555 59.051 Q 308.206 60.028 308.2 60.775 A 3.255 3.255 0 0 0 308.2 60.8 Q 308.2 62.352 309.893 62.399 A 3.87 3.87 0 0 0 310 62.4 A 6.09 6.09 0 0 0 311.439 62.207 Q 312.798 61.875 314.558 60.967 A 27.43 27.43 0 0 0 315.6 60.4 A 53.587 53.587 0 0 0 319.002 58.273 Q 320.749 57.092 322.615 55.664 A 90.332 90.332 0 0 0 323.15 55.25 Q 327.2 52.1 330.6 48.7 A 2.371 2.371 0 0 1 330.794 48.525 Q 331.003 48.358 331.181 48.315 A 0.508 0.508 0 0 1 331.3 48.3 Q 331.7 48.3 331.7 48.8 A 1.42 1.42 0 0 1 331.43 49.628 A 2.025 2.025 0 0 1 331.2 49.9 Q 327.7 53.4 323.45 57.05 A 52.945 52.945 0 0 1 316.346 62.222 A 47.555 47.555 0 0 1 314.65 63.2 A 21.941 21.941 0 0 1 310.717 64.909 A 16.226 16.226 0 0 1 305.8 65.7 A 17.497 17.497 0 0 1 303.853 65.6 Q 301.131 65.294 300 64.05 A 6.087 6.087 0 0 1 298.975 62.54 A 4.987 4.987 0 0 1 298.5 60.4 A 7.757 7.757 0 0 1 298.969 57.811 Q 299.469 56.396 300.5 54.9 A 716.614 716.614 0 0 0 301.691 53.208 Q 302.314 52.319 303.002 51.334 A 1174.073 1174.073 0 0 0 303.2 51.05 Q 304.7 48.9 306 47 Q 307.197 45.251 307.716 44.434 A 22.014 22.014 0 0 0 307.8 44.3 A 30.161 30.161 0 0 0 308.08 43.894 Q 308.533 43.224 308.65 42.95 Q 308.8 42.6 308.8 42.2 A 1.048 1.048 0 0 0 308.635 41.649 Q 308.532 41.479 308.363 41.313 A 2.865 2.865 0 0 0 308.05 41.05 Q 307.3 40.5 305.6 40.5 A 8.404 8.404 0 0 0 305.246 40.507 Q 305.073 40.515 304.922 40.53 A 4.058 4.058 0 0 0 304.75 40.55 A 4.954 4.954 0 0 1 304.293 40.593 A 5.966 5.966 0 0 1 304 40.6 A 9.898 9.898 0 0 1 303.726 40.597 Q 303.23 40.583 303.118 40.514 A 0.099 0.099 0 0 1 303.1 40.5 Z M 163.605 66.232 A 14.863 14.863 0 0 0 167 66.6 Q 172.5 66.5 177.55 63.85 Q 182.6 61.2 187.05 57.4 Q 191.5 53.6 195.3 50.1 Q 195.9 49.6 195.9 48.9 Q 195.9 48.673 195.838 48.549 A 0.249 0.249 0 0 0 195.6 48.4 A 0.35 0.35 0 0 0 195.54 48.406 Q 195.313 48.445 194.944 48.77 A 5.274 5.274 0 0 0 194.7 49 Q 192.9 50.7 189.9 53.2 A 88.002 88.002 0 0 1 188.369 54.447 A 100.724 100.724 0 0 1 183.4 58.15 A 57.198 57.198 0 0 1 181.006 59.74 A 47.516 47.516 0 0 1 176.5 62.25 A 22.014 22.014 0 0 1 174.966 62.927 Q 172.497 63.9 170.5 63.9 A 8.055 8.055 0 0 1 170.276 63.897 Q 169.499 63.876 168.849 63.702 A 3.986 3.986 0 0 1 166.75 62.4 A 5.2 5.2 0 0 1 165.754 60.543 A 6.4 6.4 0 0 1 165.5 58.7 Q 165.5 55.5 167.5 52 Q 169.5 48.5 172.55 45.55 Q 174.218 43.937 175.841 42.817 A 16.812 16.812 0 0 1 178.5 41.3 A 13.411 13.411 0 0 1 179.191 41.012 Q 180.781 40.4 182.1 40.4 Q 183.8 40.4 184.75 41.2 A 3.206 3.206 0 0 1 184.906 41.341 A 2.481 2.481 0 0 1 185.7 43.2 A 3.337 3.337 0 0 1 185.536 44.202 Q 185.257 45.091 184.5 46.1 A 6.016 6.016 0 0 1 184.429 46.193 Q 183.601 47.253 182.028 48.313 A 21.571 21.571 0 0 1 180.4 49.3 Q 177.8 50.6 175.05 51.35 Q 173.03 51.901 171.793 52.047 A 6.842 6.842 0 0 1 171 52.1 A 7.575 7.575 0 0 0 170.578 52.111 Q 169.965 52.145 169.736 52.29 A 0.248 0.248 0 0 0 169.6 52.5 Q 169.6 52.914 170.697 52.986 A 7.816 7.816 0 0 0 171.2 53 A 13.331 13.331 0 0 0 172.226 52.959 Q 173.968 52.824 176.15 52.25 Q 179 51.5 181.2 50.5 Q 184.7 48.8 186.55 46.55 A 11.525 11.525 0 0 0 187.244 45.619 Q 188.4 43.881 188.4 42.3 Q 188.4 40.2 186.4 38.75 Q 184.963 37.708 182.44 37.415 A 18.598 18.598 0 0 0 180.3 37.3 A 21.232 21.232 0 0 0 177.99 37.427 A 23.616 23.616 0 0 0 172.05 38.9 Q 167.9 40.5 164.4 43.35 Q 160.9 46.2 158.8 50 Q 156.7 53.8 156.7 58.2 A 10.325 10.325 0 0 0 156.76 59.33 A 6.988 6.988 0 0 0 159.65 64.45 A 10.827 10.827 0 0 0 163.605 66.232 Z M 263.105 66.232 A 14.863 14.863 0 0 0 266.5 66.6 Q 272 66.5 277.05 63.85 Q 282.1 61.2 286.55 57.4 Q 291 53.6 294.8 50.1 Q 295.4 49.6 295.4 48.9 Q 295.4 48.673 295.338 48.549 A 0.249 0.249 0 0 0 295.1 48.4 A 0.35 0.35 0 0 0 295.04 48.406 Q 294.813 48.445 294.444 48.77 A 5.274 5.274 0 0 0 294.2 49 Q 292.4 50.7 289.4 53.2 A 88.002 88.002 0 0 1 287.869 54.447 A 100.724 100.724 0 0 1 282.9 58.15 A 57.198 57.198 0 0 1 280.506 59.74 A 47.516 47.516 0 0 1 276 62.25 A 22.014 22.014 0 0 1 274.466 62.927 Q 271.997 63.9 270 63.9 A 8.055 8.055 0 0 1 269.776 63.897 Q 268.999 63.876 268.349 63.702 A 3.986 3.986 0 0 1 266.25 62.4 A 5.2 5.2 0 0 1 265.254 60.543 A 6.4 6.4 0 0 1 265 58.7 Q 265 55.5 267 52 Q 269 48.5 272.05 45.55 Q 273.718 43.937 275.341 42.817 A 16.812 16.812 0 0 1 278 41.3 A 13.411 13.411 0 0 1 278.691 41.012 Q 280.281 40.4 281.6 40.4 Q 283.3 40.4 284.25 41.2 A 3.206 3.206 0 0 1 284.406 41.341 A 2.481 2.481 0 0 1 285.2 43.2 A 3.337 3.337 0 0 1 285.036 44.202 Q 284.757 45.091 284 46.1 A 6.016 6.016 0 0 1 283.929 46.193 Q 283.101 47.253 281.528 48.313 A 21.571 21.571 0 0 1 279.9 49.3 Q 277.3 50.6 274.55 51.35 Q 272.53 51.901 271.293 52.047 A 6.842 6.842 0 0 1 270.5 52.1 A 7.575 7.575 0 0 0 270.078 52.111 Q 269.465 52.145 269.236 52.29 A 0.248 0.248 0 0 0 269.1 52.5 Q 269.1 52.914 270.197 52.986 A 7.816 7.816 0 0 0 270.7 53 A 13.331 13.331 0 0 0 271.726 52.959 Q 273.468 52.824 275.65 52.25 Q 278.5 51.5 280.7 50.5 Q 284.2 48.8 286.05 46.55 A 11.525 11.525 0 0 0 286.744 45.619 Q 287.9 43.881 287.9 42.3 Q 287.9 40.2 285.9 38.75 Q 284.463 37.708 281.94 37.415 A 18.598 18.598 0 0 0 279.8 37.3 A 21.232 21.232 0 0 0 277.49 37.427 A 23.616 23.616 0 0 0 271.55 38.9 Q 267.4 40.5 263.9 43.35 Q 260.4 46.2 258.3 50 Q 256.2 53.8 256.2 58.2 A 10.325 10.325 0 0 0 256.26 59.33 A 6.988 6.988 0 0 0 259.15 64.45 A 10.827 10.827 0 0 0 263.105 66.232 Z M 236.9 44.8 L 232.7 49 Q 231.4 50.3 229.9 51.7 Q 228.4 53.1 226.9 54.3 Q 226.5 54.6 226.15 54.85 A 1.715 1.715 0 0 1 225.926 54.987 Q 225.801 55.05 225.684 55.078 A 0.795 0.795 0 0 1 225.5 55.1 A 0.576 0.576 0 0 1 225.342 55.08 Q 225.164 55.03 225.117 54.848 A 0.589 0.589 0 0 1 225.1 54.7 Q 225.1 54.192 225.746 53.54 A 5.529 5.529 0 0 1 226 53.3 Q 228.8 50.8 232.15 47.7 A 25.163 25.163 0 0 0 234.906 44.728 A 18.641 18.641 0 0 0 237.1 41.2 A 7.372 7.372 0 0 0 237.424 40.258 Q 237.561 39.739 237.592 39.263 A 4.165 4.165 0 0 0 237.6 39 A 5.209 5.209 0 0 0 237.576 38.481 Q 237.491 37.635 237.1 37.4 A 1.004 1.004 0 0 1 236.816 37.081 Q 236.707 36.883 236.7 36.634 A 1.225 1.225 0 0 1 236.7 36.6 A 1.296 1.296 0 0 1 236.745 36.244 Q 236.859 35.845 237.267 35.739 A 1.326 1.326 0 0 1 237.6 35.7 A 1.766 1.766 0 0 1 238.026 35.758 Q 238.438 35.861 238.967 36.148 A 7.412 7.412 0 0 1 239.15 36.25 A 11.026 11.026 0 0 1 239.7 36.589 Q 240.256 36.957 240.6 37.3 Q 241.8 38.5 242.15 40.3 Q 242.5 42.1 242.5 44 Q 242.5 46.614 242.021 49.839 A 56.511 56.511 0 0 1 241.95 50.3 Q 241.4 53.8 240.4 57.05 Q 239.4 60.3 237.9 62.6 L 237.7 62.9 A 21.455 21.455 0 0 0 238.23 62.536 Q 238.511 62.336 238.75 62.15 Q 239.114 61.867 239.315 61.682 A 2.97 2.97 0 0 0 239.4 61.6 Q 242.4 58.6 244.6 54.85 Q 246.8 51.1 248.7 47.15 A 122.706 122.706 0 0 1 251.606 41.478 A 108.184 108.184 0 0 1 252.6 39.7 A 28.145 28.145 0 0 1 255.409 35.626 A 23.922 23.922 0 0 1 257.2 33.7 A 5.051 5.051 0 0 1 260.232 32.253 A 6.941 6.941 0 0 1 261.1 32.2 Q 262.4 32.2 263.7 32.95 A 4.328 4.328 0 0 1 265.502 34.97 A 5.451 5.451 0 0 1 265.6 35.2 Q 265.794 35.588 265.471 35.694 A 0.569 0.569 0 0 1 265.45 35.7 A 0.527 0.527 0 0 1 265.367 35.717 Q 265.106 35.748 264.938 35.47 A 0.994 0.994 0 0 1 264.9 35.4 Q 264.516 34.441 263.846 34.095 A 1.818 1.818 0 0 0 263 33.9 A 2.461 2.461 0 0 0 262.158 34.068 Q 261.077 34.464 259.6 35.8 A 41.954 41.954 0 0 0 254.307 42.109 A 48.329 48.329 0 0 0 253.1 43.95 Q 250.2 48.6 247.25 53.35 Q 244.3 58.1 240.4 62 A 10.332 10.332 0 0 1 238.317 63.591 A 14.287 14.287 0 0 1 236.2 64.6 Q 234.209 65.366 232.57 65.545 A 8.92 8.92 0 0 1 231.6 65.6 A 6.501 6.501 0 0 1 230.969 65.572 Q 230.337 65.51 229.928 65.314 A 1.861 1.861 0 0 1 229.9 65.3 Q 230.945 63.808 231.906 61.592 A 36.484 36.484 0 0 0 232.55 60 Q 233.8 56.7 234.8 53.3 A 129.47 129.47 0 0 0 235.487 50.884 Q 235.811 49.695 236.067 48.651 A 62.79 62.79 0 0 0 236.35 47.45 A 240.59 240.59 0 0 0 236.479 46.873 Q 236.876 45.082 236.899 44.825 A 0.301 0.301 0 0 0 236.9 44.8 Z M 11.974 28.109 A 1.479 1.479 0 0 0 12.5 28.2 A 2.293 2.293 0 0 0 12.555 28.2 Q 12.812 28.193 12.921 28.128 A 0.144 0.144 0 0 0 13 28 A 0.301 0.301 0 0 0 12.903 27.771 A 0.432 0.432 0 0 0 12.8 27.7 Q 10.975 26.446 10.191 25.158 A 3.73 3.73 0 0 1 9.6 23.2 Q 9.6 21.345 11.39 19.572 A 12.381 12.381 0 0 1 12.85 18.35 A 23.251 23.251 0 0 1 14.531 17.247 Q 17.394 15.533 21.5 14.05 A 90.025 90.025 0 0 1 26.445 12.43 A 114.06 114.06 0 0 1 33.45 10.6 Q 40 9.1 46.7 8.25 A 114.141 114.141 0 0 1 52.371 7.669 A 88.522 88.522 0 0 1 59.1 7.4 Q 65.7 7.4 70.05 8.7 A 11.724 11.724 0 0 1 71.538 9.248 Q 72.395 9.637 72.995 10.121 A 3.445 3.445 0 0 1 74.4 12.9 Q 74.4 13.2 74.35 13.5 Q 74.3 13.8 74.3 14.1 Q 74.3 14.328 74.362 14.452 A 0.249 0.249 0 0 0 74.6 14.6 A 0.396 0.396 0 0 0 74.904 14.475 Q 75.041 14.327 75.082 14.006 A 2.42 2.42 0 0 0 75.1 13.7 A 3.572 3.572 0 0 0 75.168 13.36 A 2.785 2.785 0 0 0 75.2 12.95 L 75.2 12.2 A 10.314 10.314 0 0 0 75.152 11.189 A 7.637 7.637 0 0 0 73 6.45 Q 70.8 4.2 67.45 2.9 Q 64.1 1.6 60.55 1.1 A 64.42 64.42 0 0 0 59.016 0.902 Q 57.777 0.758 56.669 0.683 A 33.553 33.553 0 0 0 54.4 0.6 A 78.247 78.247 0 0 0 49.222 0.776 A 95.663 95.663 0 0 0 40.35 1.8 Q 32.9 3 25.85 5.15 A 67.48 67.48 0 0 0 19.918 7.254 A 51.179 51.179 0 0 0 13.5 10.4 A 18.472 18.472 0 0 0 12.693 10.892 Q 11.528 11.645 10.638 12.485 A 9.743 9.743 0 0 0 8.8 14.8 A 12.183 12.183 0 0 0 8.108 16.246 A 9.548 9.548 0 0 0 7.4 19.8 Q 7.4 22.3 8.55 24.45 A 10.771 10.771 0 0 0 9.166 25.466 A 8.64 8.64 0 0 0 11.5 27.8 A 1.329 1.329 0 0 0 11.974 28.109 Z M 71.1 64 A 4.85 4.85 0 0 0 72.325 63.824 Q 73.826 63.429 75.9 62.15 A 22.69 22.69 0 0 0 77.911 60.736 Q 79.942 59.154 82.462 56.646 A 86.992 86.992 0 0 0 83.3 55.8 Q 84.7 54.4 85.55 53.35 Q 86.4 52.3 87 51.3 Q 87.5 49.9 88 48.6 Q 88.5 47.3 89.1 46 Q 88.5 46.4 88.2 46.4 Q 87.4 46.4 87.4 45.5 A 1.396 1.396 0 0 1 87.435 45.202 Q 87.503 44.894 87.7 44.5 Q 88.356 43.385 88.582 42.441 A 4.048 4.048 0 0 0 88.7 41.5 A 2.614 2.614 0 0 0 88.564 40.619 Q 88.151 39.464 86.488 39.404 A 5.165 5.165 0 0 0 86.3 39.4 Q 85.126 39.4 83.217 40.053 A 22.998 22.998 0 0 0 82.8 40.2 Q 80.378 41.169 77.815 43.123 A 30.059 30.059 0 0 0 77.65 43.25 A 30.076 30.076 0 0 0 73.033 47.709 A 33.288 33.288 0 0 0 72.75 48.05 A 28.26 28.26 0 0 0 70.133 51.813 A 24.243 24.243 0 0 0 69.15 53.7 Q 67.806 56.588 67.8 59.177 A 10.05 10.05 0 0 0 67.8 59.2 Q 67.8 61.1 68.55 62.55 Q 69.193 63.794 70.609 63.971 A 3.959 3.959 0 0 0 71.1 64 Z" />
    </g>
</svg>